Igor 
http://www.imdb.com/title/tt0465502/

Source  :

Igor.2008.720p.BluRay.DTS.x264-titul


Info    :

ID                               : 1
Format                           : AVC
Format/Info                      : Advanced Video Codec
Format profile                   : Baseline@L2.1
Format settings, CABAC           : No
Format settings, ReFrames        : 3 frames
Codec ID                         : avc1
Codec ID/Info                    : Advanced Video Coding
Duration                         : 1h 26mn
Bit rate mode                    : Variable
Bit rate                         : 400 Kbps
Width                            : 480 pixels
Height                           : 256 pixels
Display aspect ratio             : 1.875
Frame rate mode                  : Variable
Frame rate                       : 23.976 fps
Minimum frame rate               : 23.810 fps
Maximum frame rate               : 24.390 fps
Color space                      : YUV
Chroma subsampling               : 4:2:0
Bit depth                        : 8 bits
Scan type                        : Progressive
Bits/(Pixel*Frame)               : 0.136
Stream size                      : 248 MiB (75%)
Writing library                  : x264 core 79

ID                               : 2
Format                           : AAC
Format/Info                      : Advanced Audio Codec
Format version                   : Version 4
Format profile                   : LC
Format settings, SBR             : No
Codec ID                         : 40
Duration                         : 1h 26mn
Bit rate mode                    : Variable
Bit rate                         : 128 Kbps
Maximum bit rate                 : 189 Kbps
Channel(s)                       : 2 channels
Channel positions                : Front: L R
Sampling rate                    : 48.0 KHz
Stream size                      : 79.2 MiB (24%)
Language                         : English


Screens :  
http://img17.imageshack.us/img17/2334/vlcsnap00001w.png 
http://img153.imageshack.us/img153/7619/vlcsnap00002d.png 
http://img39.imageshack.us/img39/4388/vlcsnap00003au.png 
http://img180.imageshack.us/img180/4271/vlcsnap00004a.png 
http://img580.imageshack.us/img580/6454/vlcsnap00005k.png 
http://img816.imageshack.us/img816/9338/vlcsnap00006.png



PLEASE LET THE TORRENT SEED AND SHARE IT WITH ALL YOU KNOW!

Let me know what I can do to be your trusted source of Handheld videos. 
http://thepiratebay.org/user/on.off.on/ -OOO
	
